<?xml version="1.0" encoding="UTF-8" standalone="no"?>
<!-- Created with Inkscape (http://www.inkscape.org/) -->

<svg
   xmlns:dc="http://purl.org/dc/elements/1.1/"
   xmlns:cc="http://creativecommons.org/ns#"
   xmlns:rdf="http://www.w3.org/1999/02/22-rdf-syntax-ns#"
   xmlns:svg="http://www.w3.org/2000/svg"
   xmlns="http://www.w3.org/2000/svg"
   xmlns:sodipodi="http://sodipodi.sourceforge.net/DTD/sodipodi-0.dtd"
   xmlns:inkscape="http://www.inkscape.org/namespaces/inkscape"
   width="210mm"
   height="297mm"
   viewBox="0 0 210 297"
   version="1.1"
   id="svg828"
   inkscape:version="0.92.4 (5da689c313, 2019-01-14)"
   sodipodi:docname="CastleGateFlag.svg">
  <defs
     id="defs822" />
  <sodipodi:namedview
     id="base"
     pagecolor="#ffffff"
     bordercolor="#666666"
     borderopacity="1.0"
     inkscape:pageopacity="0.0"
     inkscape:pageshadow="2"
     inkscape:zoom="0.14278118"
     inkscape:cx="638.35366"
     inkscape:cy="-348.95711"
     inkscape:document-units="mm"
     inkscape:current-layer="layer1"
     showgrid="false"
     showborder="false"
     inkscape:window-width="1920"
     inkscape:window-height="1017"
     inkscape:window-x="-8"
     inkscape:window-y="-8"
     inkscape:window-maximized="1" />
  <metadata
     id="metadata825">
    <rdf:RDF>
      <cc:Work
         rdf:about="">
        <dc:format>image/svg+xml</dc:format>
        <dc:type
           rdf:resource="http://purl.org/dc/dcmitype/StillImage" />
        <dc:title></dc:title>
      </cc:Work>
    </rdf:RDF>
  </metadata>
  <g
     inkscape:label="Layer 1"
     inkscape:groupmode="layer"
     id="layer1">
    <g
       id="g1411">
      <g
         transform="translate(113.39285,-160.2619)"
         id="g1384">
        <path
           inkscape:connector-curvature="0"
           id="path1390"
           d="m -500.44602,383.12462 c -0.0961,-0.15549 0.73378,-4.9962 1.84419,-10.75711 1.11041,-5.7609 1.95952,-10.62921 1.8869,-10.81847 -0.12233,-0.31877 -3.41791,-2.375 -14.39395,-8.98093 -2.36471,-1.4232 -4.29948,-2.69016 -4.29948,-2.81544 0,-0.29808 0.0758,-0.30935 11.64167,-1.73143 5.46994,-0.67254 10.05635,-1.35625 10.22159,-1.52379 0.16484,-0.16711 0.74255,-2.20885 1.28379,-4.53718 4.09816,-17.62958 3.95064,-17.06628 4.35945,-16.64568 0.22866,0.23524 2.84223,5.70339 7.0583,14.76743 1.144,2.45944 2.27999,4.59669 2.52443,4.7494 0.31806,0.19873 2.87603,0.0719 8.99583,-0.44616 13.26047,-1.12247 13.00751,-1.10895 12.8675,-0.68892 -0.11195,0.33586 -2.06522,2.21604 -12.21468,11.75768 l -3.6587,3.43958 4.27094,10.15077 c 2.34902,5.58292 4.20577,10.21593 4.12611,10.29557 -0.21032,0.21032 -0.4778,0.0717 -10.28538,-5.33093 -4.92123,-2.71092 -9.06334,-4.92895 -9.2047,-4.92895 -0.25433,0 -10.61148,8.79372 -16.28167,13.82395 -0.3686,0.32698 -0.62863,0.40429 -0.74214,0.22061 z m 145.53693,-119.0639 -3.65029,-3.6839 0.16403,-1.9385 c 0.0902,-1.06616 0.45977,-6.64143 0.82123,-12.38951 0.36145,-5.74807 0.95899,-14.91588 1.32788,-20.37291 1.29093,-19.09734 1.39103,-21.01951 1.11253,-21.36511 -0.15788,-0.19592 -0.89187,-0.33073 -1.8006,-0.33073 -1.46116,0 -1.54114,0.0346 -1.6826,0.72761 -0.12977,0.63579 -0.61824,4.32218 -3.07641,23.21718 -2.36572,18.18445 -3.5263,26.4966 -3.72992,26.71395 -0.14916,0.15923 -1.28555,-0.78692 -3.01333,-2.5088 -2.05657,-2.04957 -2.77379,-2.93672 -2.77355,-3.43062 1.7e-4,-0.36642 1.96837,-10.54838 4.37377,-22.62661 2.4054,-12.07823 4.34002,-22.18068 4.29916,-22.44987 -0.0587,-0.38695 -0.68392,-0.64455 -2.98471,-1.22975 -1.60073,-0.40717 -3.80338,-1.06209 -4.89479,-1.45537 -2.61412,-0.942 -8.47461,-3.75179 -10.41738,-4.99457 -0.84886,-0.543 -1.73057,-0.95115 -1.95934,-0.90699 -0.22878,0.0442 -5.87412,8.23608 -12.5452,18.20426 -6.67109,9.96818 -12.48184,18.62997 -12.9128,19.24844 l -0.78354,1.12448 h -3.95859 c -2.17722,0 -4.02585,-0.10885 -4.10806,-0.24186 -0.0822,-0.13303 2.20616,-3.31795 5.08528,-7.0776 6.54882,-8.55171 22.43861,-29.24321 24.31865,-31.66748 0.77329,-0.99716 1.40598,-1.9635 1.40598,-2.14744 0,-0.18394 -0.56555,-0.77639 -1.25677,-1.31659 l -1.25677,-0.98216 -1.42215,1.52381 c -0.78219,0.83813 -4.66424,5.22299 -8.62678,9.74419 -27.58766,31.47697 -26.89188,30.68846 -27.27843,30.91423 -0.1924,0.11239 -2.58808,0.17193 -5.32373,0.13229 l -4.97391,-0.072 -0.0711,-5.29166 -0.0711,-5.29167 14.34579,-12.56771 c 7.89018,-6.91224 17.3521,-15.18708 21.02649,-18.38854 3.67438,-3.20146 6.685,-5.99943 6.69027,-6.21771 0.0155,-0.64378 -2.06849,-2.73352 -2.44214,-2.44882 -2.17669,1.65838 -14.83985,11.35803 -22.41252,17.16738 -16.51024,12.66576 -17.7351,13.59186 -17.9769,13.59186 -0.393,0 -0.41657,-0.37352 -0.27935,-4.4268 l 0.1323,-3.90758 18.89626,-12.62187 c 10.39295,-6.94203 19.06665,-12.79223 19.27489,-13.00048 0.32845,-0.32843 0.17908,-0.71769 -1.12695,-2.93683 -2.69862,-4.58533 -4.74679,-9.51833 -6.10349,-14.70019 -0.40005,-1.52797 -0.80003,-2.86317 -0.88884,-2.96709 -0.0888,-0.10393 -7.54166,1.28159 -16.56188,3.07895 -9.02023,1.79737 -19.29715,3.83546 -22.83761,4.52911 l -6.43719,1.26117 -2.885,-2.87608 c -1.58676,-1.58181 -2.78779,-2.97325 -2.66897,-3.09208 0.19717,-0.19716 8.29722,-1.32249 27.02732,-3.75486 17.92988,-2.32844 23.42646,-3.0956 23.62874,-3.29787 0.12017,-0.12017 0.11848,-0.91908 -0.004,-1.77538 l -0.22224,-1.55692 -1.97794,0.0457 c -1.08787,0.0251 -6.79998,0.35528 -12.69357,0.73372 -17.70916,1.1371 -38.67511,2.50804 -40.07753,2.62059 l -1.31607,0.10562 -3.31414,-3.20466 c -3.70088,-3.57862 -3.95523,-3.85789 -3.96718,-4.35573 -0.01,-0.40095 5.8688,-6.37008 6.87075,-6.9768 0.7087,-0.4291 0.94836,-0.41941 17.59479,0.71094 20.14418,1.3679 38.40556,2.50457 38.66221,2.40654 0.37232,-0.14218 0.75641,-3.04392 0.44423,-3.3561 -0.12638,-0.12639 -8.85797,-1.36158 -19.40353,-2.74484 -29.54891,-3.87596 -31.02395,-4.07932 -31.25338,-4.30874 -0.11811,-0.11811 1.08745,-1.51292 2.67902,-3.09957 l 2.89378,-2.88481 7.75134,1.53292 c 4.26323,0.8431 14.52754,2.88441 22.80958,4.53626 8.28203,1.65184 15.15789,2.94177 15.27969,2.86649 0.12179,-0.0753 0.22144,-0.28361 0.22144,-0.46294 0,-0.75041 1.94758,-7.07588 2.9252,-9.50068 1.30121,-3.22739 2.01455,-4.66235 3.88857,-7.82232 1.2932,-2.18057 1.41739,-2.51233 1.0704,-2.85932 -0.21589,-0.21589 -8.89448,-6.071 -19.28575,-13.01134 l -18.8932,-12.618812 -0.13974,-3.836458 c -0.14357,-3.941657 -0.10654,-4.497917 0.29947,-4.497917 0.12947,0 8.8976,6.642354 19.48471,14.76079 10.58712,8.118437 19.70974,15.108357 20.27249,15.533167 l 1.02318,0.77239 1.01944,-1.17953 c 0.5607,-0.64874 1.01711,-1.35812 1.01426,-1.5764 -0.003,-0.21828 -2.0608,-2.18281 -4.57322,-4.36562 -2.51243,-2.18282 -11.97439,-10.455071 -21.02659,-18.382789 l -16.45854,-14.414032 0.0714,-5.297427 0.0714,-5.297424 4.97391,-0.07203 c 2.73565,-0.03962 5.13259,0.01992 5.32652,0.132291 0.19393,0.112379 1.29226,1.275887 2.44073,2.585575 6.40984,7.309649 17.79577,20.287631 21.92775,24.993817 2.6147,2.978057 6.42898,7.323838 8.47616,9.657291 2.04719,2.333448 3.9039,4.390678 4.12603,4.571608 0.33495,0.27282 0.61716,0.1628 1.6536,-0.64469 0.82116,-0.63976 1.21009,-1.12527 1.13412,-1.41576 -0.10764,-0.41161 -2.96386,-4.166283 -21.31124,-28.014941 -9.16632,-11.914753 -9.58209,-12.477969 -9.41312,-12.751363 0.079,-0.127831 1.92501,-0.232421 4.10223,-0.232421 h 3.95859 l 0.7844,1.12448 c 0.43142,0.618463 6.23942,9.279813 12.90665,19.247445 6.66723,9.967632 12.31219,18.159545 12.54434,18.204254 0.23216,0.04471 1.05945,-0.326128 1.83842,-0.824085 3.97449,-2.540658 10.23267,-5.191352 15.37823,-6.513539 2.41115,-0.619564 2.98637,-0.860163 3.05065,-1.276021 0.0656,-0.424194 -6.38662,-33.502002 -8.15551,-41.810083 -0.80868,-3.798155 -0.89952,-3.529047 2.2512,-6.66904 1.73947,-1.73355 2.86437,-2.669106 3.01658,-2.508814 0.13349,0.140587 0.42992,1.684362 0.65872,3.430612 0.2288,1.74625 1.19515,9.128125 2.14744,16.404166 0.95228,7.276042 1.84733,14.003073 1.98899,14.948959 0.14166,0.945885 0.61834,4.577291 1.05929,8.069791 1.0973,8.691081 0.79866,7.805209 2.63124,7.805209 1.88048,0 2.22376,-0.324329 2.01286,-1.901712 -0.0839,-0.627549 -0.26882,-3.045997 -0.41091,-5.37433 -0.27212,-4.458936 -1.07789,-16.903957 -2.38688,-36.86497 -0.50051,-7.632255 -0.6975,-12.154614 -0.54168,-12.435417 0.13468,-0.242702 1.80111,-1.98797 3.70317,-3.878373 l 3.4583,-3.437091 3.74707,3.747069 3.74708,3.747071 -0.31604,4.981689 c -0.31365,4.94415 -0.51288,7.97056 -2.28943,34.778521 -0.50742,7.657008 -0.92259,14.471068 -0.92259,15.142356 0,1.396561 0.32894,1.594604 2.40248,1.446448 l 1.1694,-0.08355 0.86235,-6.482292 c 0.4743,-3.56526 1.57229,-11.899635 2.43999,-18.520833 1.57008,-11.980926 1.94589,-14.827295 2.8736,-21.764016 0.26775,-2.002031 0.5699,-3.723146 0.67145,-3.824701 0.10156,-0.101552 1.49786,1.128573 3.1029,2.733612 l 2.91825,2.918251 -4.54609,22.814772 c -2.50034,12.548126 -4.48721,22.873639 -4.41527,22.945585 0.0719,0.07194 1.43463,0.472882 3.02819,0.890968 5.17776,1.358442 10.67547,3.626408 14.73574,6.078929 1.21818,0.735817 2.37694,1.336448 2.57501,1.334731 0.19807,-0.0016 6.0156,-8.476544 12.92784,-18.832952 6.91224,-10.356408 12.77606,-19.046568 13.03073,-19.311464 0.40742,-0.423802 0.93955,-0.481632 4.43177,-0.481632 3.00047,0 3.96789,0.08069 3.96526,0.33073 -0.002,0.181901 -3.34836,4.67651 -7.43653,9.98802 -4.08817,5.311511 -8.52662,11.086042 -9.86322,12.832292 -1.3366,1.74625 -4.95602,6.467427 -8.04315,10.491507 -3.23334,4.214659 -5.55153,7.467613 -5.46804,7.672923 0.0797,0.19602 0.68315,0.76298 1.341,1.2599 l 1.19608,0.90349 0.60474,-0.63891 c 0.3326,-0.3514 3.15728,-3.555941 6.27707,-7.121202 3.11978,-3.56526 9.06123,-10.347827 13.20321,-15.072373 4.14198,-4.724543 9.67399,-11.034855 12.29337,-14.022917 l 4.7625,-5.432835 4.9928,-0.0721 c 3.45864,-0.04995 5.10495,0.02098 5.35781,0.230835 0.28654,0.237811 0.36501,1.369272 0.36501,5.263153 v 4.960218 l -3.24114,2.883294 c -1.78263,1.585809 -11.30763,9.94528 -21.16667,18.5766 -9.85904,8.631327 -17.92552,15.789917 -17.92552,15.907987 0,0.30247 1.6543,2.32645 2.03478,2.48948 0.17324,0.0742 1.66152,-0.89165 3.30729,-2.14642 3.42158,-2.60868 15.95182,-12.216083 28.51489,-21.86341 4.72408,-3.627681 8.77221,-6.608091 8.99583,-6.623127 0.34523,-0.0232 0.41759,0.552622 0.47945,3.815488 0.0534,2.815087 -0.0175,3.952922 -0.26457,4.254478 -0.1856,0.226404 -8.8802,6.108592 -19.32132,13.071531 -10.44112,6.96293 -18.98385,12.82351 -18.98385,13.02352 0,0.20001 0.69816,1.57777 1.55146,3.06169 2.64262,4.59561 4.44888,8.9784 5.74621,13.94283 0.3993,1.52797 0.85544,2.91745 1.01364,3.08774 0.21784,0.23447 5.74577,-0.77626 22.77723,-4.16454 12.36927,-2.46076 22.65566,-4.47532 22.85868,-4.4768 0.45521,-0.003 5.84861,5.26494 5.84861,5.71288 0,0.40751 1.26558,0.21852 -20.24062,3.02278 -10.04094,1.3093 -20.39938,2.67317 -23.01875,3.03089 -2.61938,0.35769 -5.38036,0.72784 -6.13552,0.82253 -0.75516,0.0947 -1.42009,0.30663 -1.47762,0.47096 -0.0575,0.16433 -0.035,0.95361 0.0501,1.75398 l 0.15471,1.45521 2.11666,-0.0322 c 1.16417,-0.0177 4.02167,-0.16553 6.35,-0.32843 9.32076,-0.65212 41.48688,-2.71722 44.67006,-2.86785 l 3.39502,-0.16063 3.55029,3.54296 c 1.95262,1.94863 3.55026,3.66533 3.55026,3.8149 0,0.14956 -1.59735,1.86597 -3.54963,3.81425 l -3.54965,3.54233 -1.67587,-0.0473 c -0.92175,-0.0259 -5.18824,-0.28149 -9.4811,-0.56769 -4.29287,-0.2862 -14.29412,-0.93726 -22.225,-1.44682 -7.93089,-0.50953 -16.29724,-1.06373 -18.59189,-1.23156 -2.29466,-0.16779 -4.25099,-0.22621 -4.34741,-0.12977 -0.2246,0.2246 -0.57062,2.85234 -0.42636,3.23789 0.0601,0.16065 1.56175,0.4881 3.33696,0.72766 6.9113,0.93265 15.73986,2.096 30.34745,3.99893 17.57989,2.29011 17.19791,2.23396 17.19791,2.52826 0,0.32721 -5.60715,5.81501 -5.93796,5.81157 -0.15386,-0.003 -10.40006,-2.01509 -22.76933,-4.47442 -16.94553,-3.36921 -22.56049,-4.39576 -22.77723,-4.16428 -0.1582,0.16899 -0.61434,1.55739 -1.01364,3.08536 -1.2979,4.96663 -3.80564,10.83215 -6.61246,15.46638 -0.758,1.2515 -0.88586,1.63944 -0.62136,1.88521 0.18316,0.17023 8.78646,5.93844 19.11844,12.81827 10.33198,6.87982 18.93728,12.69611 19.12288,12.92505 0.24706,0.30477 0.31794,1.44584 0.26457,4.25913 -0.0615,3.24533 -0.13544,3.83868 -0.47534,3.81619 -0.22136,-0.0145 -1.94777,-1.21076 -3.83646,-2.65795 -1.88869,-1.44722 -7.06539,-5.41967 -11.50377,-8.82766 -21.6336,-16.61129 -25.17959,-19.27755 -25.47658,-19.15602 -0.17616,0.0721 -0.72661,0.66894 -1.22321,1.32638 -0.88891,1.17679 -0.89506,1.20314 -0.39688,1.69926 0.27833,0.27718 9.79292,8.64031 21.14354,18.58478 l 20.6375,18.08083 0.0721,4.97922 c 0.0499,3.44848 -0.021,5.09146 -0.23083,5.34424 -0.23788,0.28663 -1.37164,0.36502 -5.27898,0.36502 h -4.97605 l -1.71202,-1.91823 c -0.94161,-1.05502 -7.45573,-8.46666 -14.47584,-16.47031 -19.84265,-22.62267 -21.01212,-23.94376 -21.19622,-23.94429 -0.0951,0 -0.7423,0.51507 -1.43832,1.14523 l -1.26548,1.14569 11.25011,14.66316 c 6.18756,8.06471 13.17316,17.16344 15.52356,20.21938 2.3504,3.05594 4.23563,5.67531 4.18941,5.82083 -0.13355,0.4204 -7.62971,0.48744 -8.14887,0.0729 -0.23243,-0.18561 -6.1026,-8.85042 -13.04483,-19.25516 -6.94222,-10.40474 -12.78041,-18.95406 -12.97376,-18.99846 -0.19335,-0.0444 -1.62646,0.65365 -3.18468,1.55128 -4.62038,2.66158 -10.69183,5.08018 -15.27753,6.08595 -0.83846,0.18388 -1.64295,0.47709 -1.78776,0.65156 -0.28377,0.34192 -0.20646,0.75425 5.45148,29.07633 l 3.32556,16.64684 -2.92055,2.92055 c -1.6063,1.60632 -3.00781,2.83329 -3.11446,2.72664 -0.10665,-0.10665 -0.87745,-5.39964 -1.71289,-11.76218 -0.83543,-6.36257 -1.88313,-14.30674 -2.32822,-17.65372 -0.44508,-3.34698 -1.23234,-9.35963 -1.74947,-13.36146 -0.51713,-4.00182 -0.9904,-7.42487 -1.05173,-7.60677 -0.1316,-0.39036 -2.70204,-0.45177 -3.29193,-0.0787 -0.39924,0.25255 -0.24458,3.21591 1.60251,30.70418 1.00663,14.98076 1.55664,23.68751 1.55897,24.67893 0.002,0.93459 -0.23081,1.22759 -3.62959,4.56407 -1.99756,1.96093 -3.69969,3.56534 -3.78251,3.56534 -0.0828,0 -1.79321,-1.65778 -3.80087,-3.68393 z m 235.72713,-95.94408 c -3.60743,-4.74522 -6.71274,-8.6867 -6.90073,-8.75882 -0.18798,-0.0721 -4.54916,1.1435 -9.69153,2.7014 -10.94822,3.31681 -11.29987,3.41415 -11.52472,3.18928 -0.0944,-0.0944 0.30877,-0.85405 0.89586,-1.68822 8.52757,-12.11673 11.44492,-16.53898 11.20566,-16.98607 -0.1401,-0.26178 -2.35972,-3.49623 -4.93247,-7.18764 -2.57276,-3.69144 -5.27746,-7.57225 -6.01046,-8.62399 -0.73298,-1.05175 -1.25492,-1.99006 -1.15986,-2.08513 0.22625,-0.22622 0.56968,-0.13123 11.52599,3.18804 5.14237,1.5579 9.49958,2.77506 9.68267,2.70479 0.18312,-0.0702 3.28798,-4.0122 6.8997,-8.75985 3.61172,-4.74765 6.66001,-8.53866 6.77399,-8.42446 0.11399,0.1142 0.30472,5.05553 0.42387,10.98073 0.12879,6.40545 0.32205,10.8757 0.47664,11.02614 0.14304,0.13914 4.78441,1.81803 10.3142,3.73081 5.529793,1.9128 10.153837,3.57534 10.275651,3.69453 0.121841,0.11922 0.101203,0.2911 -0.04585,0.38198 -0.147029,0.0909 -4.771073,1.72151 -10.275651,3.62363 -5.50458,1.90212 -10.11769,3.56388 -10.25139,3.69279 -0.13367,0.12893 -0.34837,5.08992 -0.47712,11.02447 -0.12875,5.93453 -0.32666,10.88303 -0.43979,10.99664 -0.11314,0.11364 -3.15725,-3.67585 -6.76466,-8.42105 z M -488.26059,-31.453841 c -0.17002,-0.275098 -0.90255,-3.293269 -3.47865,-14.332762 -0.83196,-3.565261 -1.64606,-6.618507 -1.80912,-6.784991 -0.16305,-0.166487 -4.7613,-0.857282 -10.21833,-1.535099 -11.55398,-1.435124 -11.69025,-1.456042 -11.58292,-1.778014 0.045,-0.134919 4.00898,-2.611093 8.80891,-5.502611 4.79992,-2.891517 9.01523,-5.485595 9.36735,-5.764614 l 0.64021,-0.507307 -2.02927,-10.574078 c -1.11611,-5.815743 -2.02928,-10.657526 -2.02928,-10.759514 0,-0.558737 1.00585,0.124753 4.11808,2.798296 1.90114,1.633165 5.55634,4.785093 8.12267,7.004286 2.56633,2.219193 4.78229,4.034896 4.92435,4.034896 0.14206,0 2.38045,-1.168548 4.9742,-2.596775 2.59375,-1.428226 6.80793,-3.749944 9.36485,-5.159375 4.25169,-2.343629 5.27293,-2.813304 5.27293,-2.425051 0,0.186483 -0.65443,1.76291 -4.85804,11.702338 -1.98474,4.692928 -3.60862,8.575696 -3.60862,8.628377 0,0.05268 3.57187,3.450746 7.9375,7.551256 4.36562,4.10051 7.9375,7.585509 7.9375,7.744439 0,0.334825 -0.21095,0.322866 -12.77251,-0.724043 -7.77359,-0.647872 -8.9841,-0.695182 -9.30543,-0.363688 -0.20316,0.209584 -2.35149,4.607782 -4.77406,9.773772 -2.42257,5.165989 -4.50224,9.492379 -4.62148,9.614199 -0.11924,0.121822 -0.29062,0.102049 -0.38084,-0.04394 z"
           style="fill:#fbd018;stroke-width:0.26458332" />
        <path
           inkscape:connector-curvature="0"
           id="path1388"
           d="m -527.274,432.18668 c 0.0708,-0.0708 2.38264,-1.421 5.13733,-3.00035 2.75468,-1.57935 7.74696,-4.4514 11.09394,-6.38236 3.34698,-1.93095 10.78838,-6.22313 16.53646,-9.53817 5.74807,-3.31507 16.58276,-9.56506 24.07708,-13.88888 7.49432,-4.32382 16.36448,-9.44139 19.71146,-11.3724 13.81851,-7.97245 55.04625,-31.75037 62.17708,-35.86041 4.22011,-2.43234 13.50698,-7.78854 20.6375,-11.90265 7.13052,-4.11411 14.45287,-8.33837 16.27188,-9.38726 1.81901,-1.04889 7.23635,-4.17557 12.03854,-6.9482 4.80219,-2.77262 21.88765,-12.62922 37.96771,-21.90358 16.08005,-9.27436 32.03442,-18.47622 35.45416,-20.44859 3.41974,-1.97239 8.83709,-5.0951 12.03855,-6.93941 3.20145,-1.84428 14.27427,-8.23346 24.60624,-14.19815 10.33198,-5.96471 21.64292,-12.48889 25.13542,-14.49816 8.42465,-4.84685 49.83396,-28.72468 54.37188,-31.35246 5.21276,-3.01856 24.81969,-14.33166 29.89791,-17.25097 2.4011,-1.3803 14.12875,-8.1453 26.061462,-15.03331 11.932708,-6.88803 25.148646,-14.51276 29.36875,-16.94389 4.220104,-2.4311 12.831498,-7.39259 19.136465,-11.02553 6.304942,-3.63291 11.693869,-6.80254 11.975413,-7.0436 0.475747,-0.40736 18.861034,-0.43829 260.46197,-0.43829 H 486.83331 V 289.57277 432.31548 H -20.284754 c -278.914926,0 -507.060086,-0.058 -506.989246,-0.1288 z"
           style="fill:#cc1026;stroke-width:0.26458332" />
        <path
           inkscape:connector-curvature="0"
           id="path1386"
           d="m -36.777107,144.75396 c -11.527472,-6.65877 -41.454943,-23.9277 -51.064583,-29.46558 -10.270966,-5.91899 -17.85183,-10.29347 -26.72292,-15.420234 -1.81901,-1.051242 -8.42698,-4.862462 -14.68437,-8.469381 -14.56269,-8.394303 -44.77742,-25.821259 -49.08021,-28.308014 -1.81901,-1.05128 -9.97479,-5.755339 -18.12396,-10.453463 -17.6444,-10.172285 -15.14687,-8.731761 -37.83541,-21.82255 -10.04094,-5.793396 -22.89969,-13.211887 -28.575,-16.485534 -5.67532,-3.273645 -16.08042,-9.2786228 -23.12246,-13.34439285 -7.04203,-4.06577275 -16.68609,-9.62709215 -21.43125,-12.35848915 -4.74515,-2.731399 -14.87833,-8.573196 -22.51817,-12.981773 -7.63984,-4.408575 -21.62969,-12.479502 -31.08854,-17.93539 -9.45886,-5.455891 -18.6862,-10.779792 -20.50521,-11.830894 -5.17392,-2.989712 -26.53745,-15.307421 -35.45417,-20.442034 -4.43838,-2.555806 -9.43901,-5.444297 -11.1125,-6.418866 -1.67349,-0.974568 -5.00724,-2.90273 -7.40833,-4.284805 -2.40109,-1.382072 -17.22437,-9.928857 -32.94062,-18.99286 -15.71625,-9.06399 -35.59969,-20.52461 -44.18542,-25.46804 -8.58573,-4.94343 -15.72353,-9.09338 -15.86177,-9.22211 -0.14573,-0.13571 213.13627,-0.23407 507.536977,-0.23407 H 486.83331 V 3.8227717 146.83006 l -260.01927,-0.006 -260.019272,-0.006 -3.571875,-2.06327 z"
           style="fill:#0036a9;stroke-width:0.26458332" />
      </g>
      <path
         inkscape:connector-curvature="0"
         id="path1403"
         d="m -413.88115,557.67478 v -285.75 h 125.78275 c 99.47518,0 125.80982,0.38213 125.91215,1.82705 0.16644,2.34994 0.1623,567.11934 -0.005,568.57672 -0.0682,0.60293 -56.72677,1.09623 -125.90728,1.09623 h -125.78275 z m 762.81154,0 v -285.75 h 126.5942 126.5943 v 285.75 285.75 h -126.5943 -126.5942 z m -263.699,219.69163 c -0.40663,-1.04926 -0.18553,-25.91513 0.49136,-55.25749 0.67687,-29.34236 0.89948,-54.26437 0.49469,-55.38225 -1.55542,-4.29547 -55.3949,0.89208 -90.85414,8.75401 -11.02196,2.44375 -20.48316,4.04402 -21.02491,3.55614 -0.54172,-0.48788 1.00555,-8.17771 3.4384,-17.08849 2.92561,-10.71558 3.88883,-16.75967 2.84472,-17.85003 -0.86826,-0.90672 -26.41157,-20.06521 -56.7629,-42.57442 -30.35133,-22.5092 -55.03607,-41.84599 -54.85498,-42.97061 0.18884,-1.17267 4.63218,-3.10483 10.41793,-4.53017 11.97473,-2.94999 15.0679,-4.96715 15.0679,-9.82625 0,-1.99065 -4.38211,-17.5776 -9.73802,-34.63766 -9.96149,-31.73012 -10.91478,-35.92853 -8.15791,-35.92853 0.86905,0 14.1246,2.63095 29.45678,5.84655 15.33215,3.2156 29.54115,5.84655 31.57552,5.84655 5.34957,0 7.9274,-2.97889 12.93198,-14.94394 2.44648,-5.84909 5.20198,-11.49894 6.12335,-12.55525 1.28943,-1.47826 8.11456,3.87148 29.63756,23.23083 28.37691,25.52425 33.14199,28.36126 33.14199,19.73188 0,-1.99622 -2.9193,-24.87322 -6.48733,-50.83775 -7.26776,-52.88752 -7.34035,-53.78562 -4.34797,-53.78562 1.1818,0 8.1898,2.35764 15.57331,5.2392 8.6635,3.38108 14.76467,4.93629 17.20312,4.38513 2.75382,-0.62245 9.86431,-9.43921 26.21902,-32.51075 12.34227,-17.41117 22.93258,-32.33248 23.53403,-33.15847 1.90729,-2.6193 4.73417,0.76681 27.31573,32.71939 13.00371,18.40008 23.413,31.62013 25.61805,32.53553 3.01899,1.25331 6.05695,0.64011 16.23003,-3.27592 16.0967,-6.19629 19.81932,-6.94719 19.81932,-3.99783 0,1.25239 -2.92141,23.64961 -6.49201,49.77162 -7.48068,54.72753 -7.68067,57.91486 -3.63386,57.91486 1.57199,0 15.21803,-11.14546 30.32453,-24.76768 15.10651,-13.62222 28.01432,-24.46272 28.68402,-24.08995 0.6697,0.37274 3.52903,6.09186 6.35406,12.70918 2.82503,6.61729 5.88374,12.85362 6.79712,13.85849 2.5549,2.81077 7.28741,2.2965 38.74063,-4.20994 16.05108,-3.32035 29.65178,-5.61559 30.22368,-5.10054 0.5719,0.51505 -3.4717,15.56425 -8.9858,33.44269 -5.5142,17.87842 -10.0256,34.29984 -10.0254,36.49203 3e-4,4.83043 3.8251,7.2494 16.636,10.52124 5.1328,1.31088 9.3323,3.01007 9.3323,3.77596 0,0.7659 -25.5623,20.52035 -56.80511,43.89879 -31.24281,23.37843 -56.80511,43.14328 -56.80511,43.92186 0,0.7786 1.92235,8.32458 4.27189,16.76887 2.34952,8.44428 3.85856,15.72546 3.3534,16.18039 -0.50516,0.45495 -9.91361,-1.18255 -20.90767,-3.63888 -25.89007,-5.78444 -51.24989,-9.02867 -73.54829,-9.40887 l -17.85304,-0.3044 1.8e-4,13.88555 c 1e-4,7.63705 0.36527,32.95991 0.8115,56.27301 l 0.81132,42.38747 -7.72581,0.44611 c -5.2611,0.30378 -7.96169,-0.16252 -8.46516,-1.46164 z"
         style="fill:#c40101;stroke-width:1.54020822" />
    </g>
  </g>
</svg>
